<?xml version="1.0" standalone="no"?>
<!DOCTYPE svg PUBLIC "-//W3C//DTD SVG 20010904//EN"
 "http://www.w3.org/TR/2001/REC-SVG-20010904/DTD/svg10.dtd">
<svg version="1.0" xmlns="http://www.w3.org/2000/svg"
 width="512.000000pt" height="512.000000pt" viewBox="0 0 512.000000 512.000000"
 preserveAspectRatio="xMidYMid meet">

<g transform="translate(0.000000,512.000000) scale(0.100000,-0.100000)"
fill="#000000" stroke="none">
<path d="M2964 4625 c-451 -58 -762 -245 -917 -551 l-26 -51 -68 -7 c-371 -38
-707 -233 -763 -443 l-11 -43 -250 0 -250 0 -24 -25 -25 -24 0 -266 0 -265
-210 0 c-239 0 -243 -1 -255 -82 -4 -24 -5 -394 -3 -823 l4 -780 26 -97 c73
-269 249 -483 493 -599 193 -92 13 -84 1875 -84 1550 0 1649 1 1710 18 269 74
481 250 600 498 22 46 50 120 62 164 22 79 23 86 26 908 l3 827 -25 25 -25 25
-211 0 -210 0 0 265 0 266 -25 24 -24 25 -254 0 -254 0 -6 33 c-21 132 -162
272 -347 346 -71 28 -206 61 -250 61 -20 0 -20 5 -20 310 l0 311 -25 24 c-22
23 -31 25 -122 24 -54 -1 -143 -7 -199 -14z m186 -454 c0 -299 0 -300 23 -327
21 -24 33 -28 113 -34 114 -10 200 -33 286 -76 103 -52 188 -137 188 -189 0
-13 -123 -15 -1205 -15 -663 0 -1205 4 -1205 8 0 18 59 90 101 124 131 107
337 177 570 194 59 4 100 12 111 21 9 8 37 57 63 108 94 190 263 329 495 408
114 39 298 73 413 76 l47 1 0 -299z m1178 -1013 l2 -208 -1771 0 -1772 0 6 68
c4 37 7 131 7 210 l0 142 1763 -2 1762 -3 3 -207z m467 -985 c9 -687 4 -890
-20 -978 -70 -254 -276 -459 -535 -532 -62 -17 -148 -18 -1675 -18 -1809 0
-1653 -6 -1820 76 -184 90 -316 244 -386 454 l-24 70 -3 768 -3 767 2229 0
2230 0 7 -607z"/>
<path d="M655 2545 l-25 -24 0 -504 c0 -573 1 -584 82 -740 50 -96 168 -222
260 -275 107 -63 303 -113 379 -97 59 13 80 95 36 139 -18 18 -38 24 -101 29
-220 19 -400 167 -472 387 -16 49 -18 113 -23 563 l-6 509 -24 19 c-32 26 -77
24 -106 -6z"/>
</g>
</svg>
